<svg width="512" height="471" viewBox="0 0 512 471" fill="none" xmlns="http://www.w3.org/2000/svg">
<path d="M256.149 76.2188C247.864 76.2188 241.149 69.5039 241.149 61.2188V15C241.149 6.71484 247.864 0 256.149 0C264.434 0 271.149 6.71484 271.149 15V61.2188C271.149 69.5039 264.434 76.2188 256.149 76.2188Z" fill="white"/>
<path d="M464.379 154.91C460.547 154.91 456.711 153.449 453.786 150.527C447.922 144.676 447.911 135.18 453.762 129.316L486.383 96.6328C492.235 90.7695 501.735 90.7617 507.598 96.6133C513.461 102.465 513.469 111.961 507.618 117.824L474.997 150.508C472.067 153.441 468.223 154.91 464.379 154.91Z" fill="white"/>
<path d="M47.6216 154.91C43.7778 154.91 39.9341 153.445 37.0044 150.508L4.38331 117.824C-1.46826 111.961 -1.46044 102.465 4.40284 96.6133C10.2661 90.7617 19.7661 90.7695 25.6177 96.6328L58.2388 129.316C64.0903 135.18 64.0786 144.676 58.2153 150.527C55.2896 153.449 51.4536 154.91 47.6216 154.91Z" fill="white"/>
<path d="M383.719 272.5C381.118 340.707 324.829 395.395 256 395.395C186.805 395.395 130.282 340.129 128.243 271.422C125.54 273.965 122.852 276.559 120.188 279.207L120.141 279.254C114.965 284.563 76.5083 323.746 59.9224 337.371C65.0122 341.98 70.3989 346.664 76.063 351.359C102.352 373.133 129.192 390.52 155.836 403.039C189.727 418.965 223.426 427.035 256 427.035C288.575 427.035 322.274 418.965 356.165 403.039C382.813 390.52 409.653 373.133 435.942 351.359C441.18 347.02 446.172 342.688 450.922 338.414C422.79 310.609 399.059 287.34 383.719 272.5V272.5Z" fill="white"/>
<path d="M350.907 243.855C308.129 212.191 276.063 205.113 256 205.113C236.024 205.113 203.961 212.145 161.09 243.859C159.192 251.453 158.176 259.398 158.176 267.574C158.176 321.516 202.059 365.395 256 365.395C309.938 365.395 353.821 321.512 353.821 267.574C353.821 259.398 352.809 251.453 350.907 243.855V243.855ZM270.274 273.574C270.274 281.859 263.555 288.574 255.274 288.574C246.989 288.574 240.274 281.859 240.274 273.574V258.762C240.274 250.477 246.989 243.762 255.274 243.762C263.555 243.762 270.274 250.477 270.274 258.762V273.574Z" fill="white"/>
<path d="M432.891 181.305C407.579 160.695 381.782 144.145 356.165 132.109C322.274 116.188 288.575 108.113 256.001 108.113C223.426 108.113 189.727 116.188 155.836 132.109C130.122 144.191 104.231 160.816 78.8247 181.531C59.8521 197.703 37.1568 220.402 17.4888 240.996C8.56691 251.254 3.51613 257.961 3.03957 258.602C0.680196 261.762 -0.269023 265.621 0.176289 269.355L0.215352 269.668C0.555196 272.105 1.4927 274.477 3.03957 276.551C3.8052 277.578 16.3794 294.285 37.9614 316.277C38.3404 316.059 38.7193 315.859 39.0982 315.625C45.7193 311.535 91.7583 265.695 98.7857 258.191L98.9068 258.059L99.0318 257.934C108.805 248.215 118.895 239.094 129.016 230.82C160.102 205.406 207.368 175.113 255.997 175.113C283.254 175.113 327.743 185.055 384.907 232.402C392.723 238.875 448.532 293.871 472.637 317.699C495.079 295.008 508.176 277.598 508.958 276.551C512.934 271.227 512.934 263.926 508.958 258.602C508.43 257.891 502.258 249.688 491.376 237.434C470.059 215.727 448.602 194.734 432.891 181.305V181.305Z" fill="white"/>
<g clip-path="url(#clip0)">
<rect x="313" y="271" width="199" height="200" rx="80" fill="white"/>
<path d="M411.297 281.576C366.01 281.576 368.838 301.113 368.838 301.113L368.888 321.353H412.104V327.43H351.724C351.724 327.43 322.745 324.16 322.745 369.616C322.745 415.072 348.038 413.46 348.038 413.46H363.133V392.366C363.133 392.366 362.319 367.205 388.023 367.205H430.885C430.885 367.205 454.966 367.592 454.966 344.053V305.131C454.966 305.131 458.624 281.576 411.297 281.576ZM387.467 295.188C388.489 295.187 389.5 295.386 390.444 295.774C391.387 296.163 392.245 296.732 392.967 297.451C393.689 298.169 394.262 299.022 394.652 299.961C395.042 300.9 395.243 301.906 395.242 302.921C395.243 303.937 395.042 304.943 394.652 305.882C394.262 306.821 393.689 307.674 392.967 308.392C392.245 309.111 391.387 309.68 390.444 310.069C389.5 310.457 388.489 310.656 387.467 310.655C386.446 310.656 385.435 310.457 384.491 310.069C383.547 309.68 382.69 309.111 381.968 308.392C381.246 307.674 380.673 306.821 380.283 305.882C379.892 304.943 379.692 303.937 379.693 302.921C379.692 301.906 379.892 300.9 380.283 299.961C380.673 299.022 381.246 298.169 381.968 297.451C382.69 296.732 383.547 296.163 384.491 295.774C385.435 295.386 386.446 295.187 387.467 295.188V295.188Z" fill="url(#paint0_linear)"/>
<path d="M412.583 458.112C457.869 458.112 455.041 438.576 455.041 438.576L454.991 418.336H411.774V412.259H472.155C472.155 412.259 501.133 415.529 501.133 370.072C501.133 324.616 475.84 326.228 475.84 326.228H460.745V347.321C460.745 347.321 461.559 372.483 435.856 372.483H392.993C392.993 372.483 368.912 372.096 368.912 395.636V434.558C368.912 434.558 365.255 458.112 412.582 458.112H412.583ZM436.412 444.502C435.391 444.503 434.379 444.304 433.435 443.915C432.492 443.527 431.634 442.957 430.912 442.239C430.19 441.521 429.618 440.668 429.227 439.729C428.837 438.79 428.636 437.784 428.637 436.768C428.636 435.752 428.837 434.746 429.227 433.807C429.617 432.868 430.19 432.015 430.912 431.297C431.634 430.579 432.492 430.009 433.435 429.62C434.379 429.232 435.39 429.033 436.412 429.034C437.433 429.033 438.444 429.232 439.388 429.62C440.332 430.009 441.189 430.578 441.911 431.297C442.633 432.015 443.206 432.868 443.596 433.807C443.987 434.746 444.187 435.752 444.186 436.768C444.187 437.783 443.987 438.79 443.596 439.728C443.206 440.667 442.633 441.52 441.911 442.238C441.189 442.957 440.332 443.526 439.388 443.915C438.444 444.303 437.433 444.502 436.412 444.501V444.502Z" fill="url(#paint1_linear)"/>
</g>
<defs>
<linearGradient id="paint0_linear" x1="339.888" y1="297.455" x2="427.834" y2="384.98" gradientUnits="userSpaceOnUse">
<stop stop-color="#387EB8"/>
<stop offset="1" stop-color="#366994"/>
</linearGradient>
<linearGradient id="paint1_linear" x1="394.15" y1="353.363" x2="488.617" y2="443.134" gradientUnits="userSpaceOnUse">
<stop stop-color="#FFE052"/>
<stop offset="1" stop-color="#FFC331"/>
</linearGradient>
<clipPath id="clip0">
<rect x="313" y="271" width="199" height="200" fill="white"/>
</clipPath>
</defs>
</svg>
