<svg width="512" height="471" viewBox="0 0 512 471" fill="none" xmlns="http://www.w3.org/2000/svg">
<path d="M256.148 76.2188C247.863 76.2188 241.148 69.5039 241.148 61.2188V15C241.148 6.71484 247.863 0 256.148 0C264.434 0 271.148 6.71484 271.148 15V61.2188C271.148 69.5039 264.434 76.2188 256.148 76.2188Z" fill="#34558B"/>
<path d="M464.379 154.91C460.547 154.91 456.711 153.449 453.785 150.527C447.922 144.676 447.91 135.18 453.762 129.316L486.383 96.6328C492.234 90.7695 501.734 90.7617 507.598 96.6133C513.461 102.465 513.469 111.961 507.617 117.824L474.996 150.508C472.066 153.441 468.223 154.91 464.379 154.91Z" fill="#34558B"/>
<path d="M47.6211 154.91C43.7773 154.91 39.9336 153.445 37.0039 150.508L4.3828 117.824C-1.46876 111.961 -1.46095 102.465 4.40234 96.6133C10.2656 90.7617 19.7656 90.7695 25.6172 96.6328L58.2383 129.316C64.0898 135.18 64.0781 144.676 58.2148 150.527C55.2891 153.449 51.4531 154.91 47.6211 154.91Z" fill="#34558B"/>
<path d="M383.719 272.5C381.117 340.707 324.828 395.395 256 395.395C186.805 395.395 130.281 340.129 128.242 271.422C125.539 273.965 122.852 276.559 120.187 279.207L120.141 279.254C114.965 284.563 76.5078 323.746 59.9219 337.371C65.0117 341.98 70.3984 346.664 76.0625 351.359C102.352 373.133 129.191 390.52 155.836 403.039C189.727 418.965 223.426 427.035 256 427.035C288.574 427.035 322.273 418.965 356.164 403.039C382.812 390.52 409.652 373.133 435.941 351.359C441.18 347.02 446.172 342.688 450.922 338.414C422.789 310.609 399.059 287.34 383.719 272.5V272.5Z" fill="#34558B"/>
<path d="M350.906 243.855C308.129 212.191 276.062 205.113 256 205.113C236.023 205.113 203.961 212.145 161.09 243.859C159.191 251.453 158.176 259.398 158.176 267.574C158.176 321.516 202.059 365.395 256 365.395C309.937 365.395 353.82 321.512 353.82 267.574C353.82 259.398 352.809 251.453 350.906 243.855V243.855ZM270.273 273.574C270.273 281.859 263.555 288.574 255.273 288.574C246.988 288.574 240.273 281.859 240.273 273.574V258.762C240.273 250.477 246.988 243.762 255.273 243.762C263.555 243.762 270.273 250.477 270.273 258.762V273.574Z" fill="#34558B"/>
<path d="M432.891 181.305C407.578 160.695 381.781 144.145 356.164 132.109C322.273 116.188 288.574 108.113 256 108.113C223.426 108.113 189.727 116.188 155.836 132.109C130.121 144.191 104.23 160.816 78.8242 181.531C59.8516 197.703 37.1562 220.402 17.4883 240.996C8.56639 251.254 3.51561 257.961 3.03905 258.602C0.679677 261.762 -0.269542 265.621 0.17577 269.355L0.214833 269.668C0.554677 272.105 1.49218 274.477 3.03905 276.551C3.80468 277.578 16.3789 294.285 37.9609 316.277C38.3398 316.059 38.7187 315.859 39.0976 315.625C45.7187 311.535 91.7578 265.695 98.7851 258.191L98.9062 258.059L99.0312 257.934C108.805 248.215 118.895 239.094 129.016 230.82C160.102 205.406 207.367 175.113 255.996 175.113C283.254 175.113 327.742 185.055 384.906 232.402C392.723 238.875 448.531 293.871 472.637 317.699C495.078 295.008 508.176 277.598 508.957 276.551C512.934 271.227 512.934 263.926 508.957 258.602C508.43 257.891 502.258 249.688 491.375 237.434C470.059 215.727 448.602 194.734 432.891 181.305V181.305Z" fill="#34558B"/>
<rect x="187" y="213" width="137" height="138" rx="68.5" fill="#34558B"/>
<path d="M254.671 220.298C223.494 220.298 225.441 233.778 225.441 233.778L225.475 247.744H255.227V251.937H213.659C213.659 251.937 193.708 249.681 193.708 281.045C193.708 312.41 211.121 311.297 211.121 311.297H221.513V296.743C221.513 296.743 220.953 279.381 238.648 279.381H268.157C268.157 279.381 284.735 279.649 284.735 263.406V236.551C284.735 236.551 287.253 220.298 254.671 220.298ZM238.266 229.689C238.969 229.689 239.665 229.826 240.315 230.094C240.965 230.362 241.555 230.755 242.052 231.251C242.549 231.747 242.944 232.335 243.212 232.983C243.481 233.631 243.619 234.325 243.618 235.026C243.619 235.727 243.481 236.421 243.212 237.069C242.944 237.716 242.549 238.305 242.052 238.801C241.555 239.296 240.965 239.689 240.315 239.957C239.665 240.225 238.969 240.363 238.266 240.362C237.563 240.363 236.867 240.225 236.217 239.957C235.568 239.689 234.977 239.296 234.48 238.801C233.983 238.305 233.589 237.716 233.32 237.069C233.051 236.421 232.913 235.727 232.914 235.026C232.913 234.325 233.051 233.631 233.32 232.983C233.589 232.335 233.983 231.747 234.48 231.251C234.977 230.755 235.568 230.362 236.217 230.094C236.867 229.826 237.563 229.689 238.266 229.689V229.689Z" fill="url(#paint0_linear)"/>
<path d="M255.556 342.107C286.733 342.107 284.787 328.627 284.787 328.627L284.752 314.662H255V310.469H296.569C296.569 310.469 316.519 312.725 316.519 281.36C316.519 249.995 299.106 251.108 299.106 251.108H288.714V265.662C288.714 265.662 289.274 283.023 271.579 283.023H242.07C242.07 283.023 225.492 282.756 225.492 298.999V325.855C225.492 325.855 222.974 342.107 255.556 342.107H255.556ZM271.962 332.716C271.258 332.717 270.562 332.58 269.913 332.312C269.263 332.044 268.673 331.651 268.175 331.155C267.678 330.659 267.284 330.071 267.015 329.423C266.747 328.775 266.609 328.081 266.609 327.38C266.609 326.679 266.746 325.985 267.015 325.337C267.284 324.689 267.678 324.101 268.175 323.605C268.672 323.109 269.263 322.716 269.912 322.448C270.562 322.18 271.258 322.043 271.962 322.043C272.665 322.043 273.361 322.18 274.01 322.448C274.66 322.716 275.25 323.109 275.748 323.605C276.245 324.1 276.639 324.689 276.908 325.337C277.176 325.984 277.314 326.679 277.314 327.38C277.314 328.081 277.176 328.775 276.908 329.422C276.639 330.07 276.245 330.659 275.748 331.154C275.25 331.65 274.66 332.043 274.01 332.311C273.361 332.579 272.665 332.717 271.962 332.716V332.716Z" fill="url(#paint1_linear)"/>
<defs>
<linearGradient id="paint0_linear" x1="205.511" y1="231.254" x2="266.193" y2="291.509" gradientUnits="userSpaceOnUse">
<stop stop-color="#387EB8"/>
<stop offset="1" stop-color="#366994"/>
</linearGradient>
<linearGradient id="paint1_linear" x1="242.867" y1="269.83" x2="308.042" y2="331.625" gradientUnits="userSpaceOnUse">
<stop stop-color="#FFE052"/>
<stop offset="1" stop-color="#FFC331"/>
</linearGradient>
</defs>
</svg>
