<?xml version="1.0"?>
<svg xmlns="http://www.w3.org/2000/svg" height="512px" viewBox="0 -42 512.00001 512" width="512px" class=""><g><path d="m256.148438 76.21875c-8.285157 0-15-6.714844-15-15v-46.21875c0-8.285156 6.714843-15 15-15 8.285156 0 15 6.714844 15 15v46.21875c0 8.285156-6.714844 15-15 15zm0 0" data-original="#000000" class="active-path" data-old_color="#000000" fill="#FFFFFF"/><path d="m464.378906 154.910156c-3.832031 0-7.667968-1.460937-10.59375-4.382812-5.863281-5.851563-5.875-15.347656-.023437-21.210938l32.621093-32.683594c5.851563-5.863281 15.351563-5.871093 21.214844-.019531 5.863282 5.851563 5.871094 15.347657.019532 21.210938l-32.621094 32.683593c-2.929688 2.933594-6.773438 4.402344-10.617188 4.402344zm0 0" data-original="#000000" class="active-path" data-old_color="#000000" fill="#FFFFFF"/><path d="m47.621094 154.910156c-3.84375 0-7.6875-1.464844-10.617188-4.402344l-32.621094-32.683593c-5.851562-5.863281-5.84375-15.359375.019532-21.210938 5.863281-5.851562 15.363281-5.84375 21.214844.019531l32.621093 32.683594c5.851563 5.863282 5.839844 15.359375-.023437 21.210938-2.925782 2.921875-6.761719 4.382812-10.59375 4.382812zm0 0" data-original="#000000" class="active-path" data-old_color="#000000" fill="#FFFFFF"/><path d="m383.71875 272.5c-2.601562 68.207031-58.890625 122.894531-127.71875 122.894531-69.195312 0-125.71875-55.265625-127.757812-123.972656-2.703126 2.542969-5.390626 5.136719-8.054688 7.785156l-.046875.046875c-5.175781 5.308594-43.632813 44.492188-60.21875 58.117188 5.089844 4.609375 10.476563 9.292968 16.140625 13.988281 26.289062 21.773437 53.128906 39.160156 79.773438 51.679687 33.890624 15.925782 67.589843 23.996094 100.164062 23.996094s66.273438-8.070312 100.164062-23.996094c26.648438-12.519531 53.488282-29.90625 79.777344-51.679687 5.238282-4.339844 10.230469-8.671875 14.980469-12.945313-28.132813-27.804687-51.863281-51.074218-67.203125-65.914062zm0 0" data-original="#000000" class="active-path" data-old_color="#000000" fill="#FFFFFF"/><path d="m350.90625 243.855469c-42.777344-31.664063-74.84375-38.742188-94.90625-38.742188-19.976562 0-52.039062 7.03125-94.910156 38.746094-1.898438 7.59375-2.914063 15.539063-2.914063 23.714844 0 53.941406 43.882813 97.820312 97.824219 97.820312 53.9375 0 97.820312-43.882812 97.820312-97.820312 0-8.175781-1.011718-16.121094-2.914062-23.71875zm-80.632812 29.71875c0 8.285156-6.71875 15-15 15-8.285157 0-15-6.714844-15-15v-14.8125c0-8.285157 6.714843-15 15-15 8.28125 0 15 6.714843 15 15zm0 0" data-original="#000000" class="active-path" data-old_color="#000000" fill="#FFFFFF"/><path d="m432.890625 181.304688c-25.3125-20.609376-51.109375-37.160157-76.726563-49.195313-33.890624-15.921875-67.589843-23.996094-100.164062-23.996094s-66.273438 8.074219-100.164062 23.996094c-25.714844 12.082031-51.605469 28.707031-77.011719 49.421875-18.972657 16.171875-41.667969 38.871094-61.335938 59.464844-8.921875 10.257812-13.972656 16.964844-14.449219 17.605468-2.359374 3.160157-3.308593 7.019532-2.863281 10.753907l.039063.3125c.339844 2.4375 1.277344 4.808593 2.824218 6.882812.765626 1.027344 13.339844 17.734375 34.921876 39.726563.378906-.21875.757812-.417969 1.136718-.652344 6.621094-4.089844 52.660156-49.929688 59.6875-57.433594l.121094-.132812.125-.125c9.773438-9.71875 19.863281-18.839844 29.984375-27.113282 31.085937-25.414062 78.351563-55.707031 126.980469-55.707031 27.257812 0 71.746094 9.941407 128.910156 57.289063 7.816406 6.472656 63.625 61.46875 87.730469 85.296875 22.441406-22.691407 35.539062-40.101563 36.320312-41.148438 3.976563-5.324219 3.976563-12.625 0-17.949219-.527343-.710937-6.699219-8.914062-17.582031-21.167968-21.316406-21.707032-42.773438-42.699219-58.484375-56.128906zm0 0" data-original="#000000" class="active-path" data-old_color="#000000" fill="#FFFFFF"/></g> </svg>
