<svg width="512" height="512" viewBox="0 0 512 512" fill="none" xmlns="http://www.w3.org/2000/svg">
<path d="M256.149 117.219C247.864 117.219 241.149 110.504 241.149 102.219V56C241.149 47.7148 247.864 41 256.149 41C264.434 41 271.149 47.7148 271.149 56V102.219C271.149 110.504 264.434 117.219 256.149 117.219Z" fill="white"/>
<path d="M464.379 195.91C460.547 195.91 456.711 194.449 453.786 191.527C447.922 185.676 447.911 176.18 453.762 170.316L486.383 137.633C492.235 131.77 501.735 131.762 507.598 137.613C513.461 143.465 513.469 152.961 507.618 158.824L474.997 191.508C472.067 194.441 468.223 195.91 464.379 195.91Z" fill="white"/>
<path d="M47.6216 195.91C43.7778 195.91 39.9341 194.445 37.0044 191.508L4.38331 158.824C-1.46826 152.961 -1.46044 143.465 4.40284 137.613C10.2661 131.762 19.7661 131.77 25.6177 137.633L58.2388 170.316C64.0903 176.18 64.0786 185.676 58.2153 191.527C55.2896 194.449 51.4536 195.91 47.6216 195.91Z" fill="white"/>
<path d="M383.719 313.5C381.118 381.707 324.829 436.395 256 436.395C186.805 436.395 130.282 381.129 128.243 312.422C125.54 314.965 122.852 317.559 120.188 320.207L120.141 320.254C114.965 325.563 76.5083 364.746 59.9224 378.371C65.0122 382.98 70.3989 387.664 76.063 392.359C102.352 414.133 129.192 431.52 155.836 444.039C189.727 459.965 223.426 468.035 256 468.035C288.575 468.035 322.274 459.965 356.165 444.039C382.813 431.52 409.653 414.133 435.942 392.359C441.18 388.02 446.172 383.688 450.922 379.414C422.79 351.609 399.059 328.34 383.719 313.5V313.5Z" fill="white"/>
<path d="M350.907 284.855C308.129 253.191 276.063 246.113 256 246.113C236.024 246.113 203.961 253.145 161.09 284.859C159.192 292.453 158.176 300.398 158.176 308.574C158.176 362.516 202.059 406.395 256 406.395C309.938 406.395 353.821 362.512 353.821 308.574C353.821 300.398 352.809 292.453 350.907 284.855V284.855ZM270.274 314.574C270.274 322.859 263.555 329.574 255.274 329.574C246.989 329.574 240.274 322.859 240.274 314.574V299.762C240.274 291.477 246.989 284.762 255.274 284.762C263.555 284.762 270.274 291.477 270.274 299.762V314.574Z" fill="white"/>
<path d="M432.891 222.305C407.579 201.695 381.782 185.145 356.165 173.109C322.274 157.188 288.575 149.113 256.001 149.113C223.426 149.113 189.727 157.188 155.836 173.109C130.122 185.191 104.231 201.816 78.8247 222.531C59.8521 238.703 37.1568 261.402 17.4888 281.996C8.56691 292.254 3.51613 298.961 3.03957 299.602C0.680196 302.762 -0.269023 306.621 0.176289 310.355L0.215352 310.668C0.555196 313.105 1.4927 315.477 3.03957 317.551C3.8052 318.578 16.3794 335.285 37.9614 357.277C38.3404 357.059 38.7193 356.859 39.0982 356.625C45.7193 352.535 91.7583 306.695 98.7857 299.191L98.9068 299.059L99.0318 298.934C108.805 289.215 118.895 280.094 129.016 271.82C160.102 246.406 207.368 216.113 255.997 216.113C283.254 216.113 327.743 226.055 384.907 273.402C392.723 279.875 448.532 334.871 472.637 358.699C495.079 336.008 508.176 318.598 508.958 317.551C512.934 312.227 512.934 304.926 508.958 299.602C508.43 298.891 502.258 290.688 491.376 278.434C470.059 256.727 448.602 235.734 432.891 222.305V222.305Z" fill="white"/>
<g clip-path="url(#clip0)">
<rect x="187" y="254" width="137" height="138" rx="68.5" fill="white"/>
<path d="M254.672 261.298C223.495 261.298 225.441 274.778 225.441 274.778L225.476 288.744H255.228V292.937H213.659C213.659 292.937 193.709 290.681 193.709 322.045C193.709 353.41 211.122 352.297 211.122 352.297H221.514V337.743C221.514 337.743 220.954 320.381 238.649 320.381H268.157C268.157 320.381 284.736 320.649 284.736 304.406V277.551C284.736 277.551 287.254 261.298 254.672 261.298ZM238.267 270.689C238.97 270.689 239.666 270.826 240.316 271.094C240.965 271.362 241.556 271.755 242.053 272.251C242.55 272.747 242.944 273.335 243.213 273.983C243.482 274.631 243.62 275.325 243.619 276.026C243.62 276.727 243.482 277.421 243.213 278.069C242.944 278.716 242.55 279.305 242.053 279.801C241.556 280.296 240.965 280.689 240.316 280.957C239.666 281.225 238.97 281.363 238.267 281.362C237.564 281.363 236.867 281.225 236.218 280.957C235.568 280.689 234.978 280.296 234.481 279.801C233.983 279.305 233.589 278.716 233.32 278.069C233.052 277.421 232.914 276.727 232.914 276.026C232.914 275.325 233.052 274.631 233.32 273.983C233.589 273.335 233.983 272.747 234.481 272.251C234.978 271.755 235.568 271.362 236.218 271.094C236.867 270.826 237.564 270.689 238.267 270.689V270.689Z" fill="#387EB8"/>
<path d="M255.557 383.107C286.734 383.107 284.787 369.627 284.787 369.627L284.753 355.662H255.001V351.469H296.569C296.569 351.469 316.519 353.725 316.519 322.36C316.519 290.995 299.106 292.108 299.106 292.108H288.714V306.662C288.714 306.662 289.274 324.023 271.579 324.023H242.071C242.071 324.023 225.492 323.756 225.492 339.999V366.855C225.492 366.855 222.975 383.107 255.556 383.107H255.557ZM271.962 373.716C271.259 373.717 270.563 373.58 269.913 373.312C269.263 373.044 268.673 372.651 268.176 372.155C267.679 371.659 267.285 371.071 267.016 370.423C266.747 369.775 266.609 369.081 266.61 368.38C266.609 367.679 266.747 366.985 267.016 366.337C267.284 365.689 267.679 365.101 268.176 364.605C268.673 364.109 269.263 363.716 269.913 363.448C270.563 363.18 271.259 363.043 271.962 363.043C272.665 363.043 273.361 363.18 274.011 363.448C274.661 363.716 275.251 364.109 275.748 364.605C276.245 365.1 276.639 365.689 276.908 366.337C277.177 366.984 277.315 367.679 277.314 368.38C277.315 369.081 277.177 369.775 276.908 370.422C276.639 371.07 276.245 371.659 275.748 372.154C275.251 372.65 274.661 373.043 274.011 373.311C273.361 373.579 272.665 373.717 271.962 373.716V373.716Z" fill="#FFE052"/>
</g>
<defs>
<clipPath id="clip0">
<rect x="187" y="254" width="137" height="138" fill="white"/>
</clipPath>
</defs>
</svg>
