<svg width="512" height="495" viewBox="0 0 512 495" fill="none" xmlns="http://www.w3.org/2000/svg">
<path d="M256.149 100.219C247.864 100.219 241.149 93.5039 241.149 85.2188V39C241.149 30.7148 247.864 24 256.149 24C264.434 24 271.149 30.7148 271.149 39V85.2188C271.149 93.5039 264.434 100.219 256.149 100.219Z" fill="#34558B"/>
<path d="M464.379 178.91C460.547 178.91 456.711 177.449 453.786 174.527C447.922 168.676 447.911 159.18 453.762 153.316L486.383 120.633C492.235 114.77 501.735 114.762 507.598 120.613C513.461 126.465 513.469 135.961 507.618 141.824L474.997 174.508C472.067 177.441 468.223 178.91 464.379 178.91Z" fill="#34558B"/>
<path d="M47.6216 178.91C43.7778 178.91 39.9341 177.445 37.0044 174.508L4.38331 141.824C-1.46826 135.961 -1.46044 126.465 4.40284 120.613C10.2661 114.762 19.7661 114.77 25.6177 120.633L58.2388 153.316C64.0903 159.18 64.0786 168.676 58.2153 174.527C55.2896 177.449 51.4536 178.91 47.6216 178.91Z" fill="#34558B"/>
<path d="M383.719 296.5C381.118 364.707 324.829 419.395 256 419.395C186.805 419.395 130.282 364.129 128.243 295.422C125.54 297.965 122.852 300.559 120.188 303.207L120.141 303.254C114.965 308.563 76.5083 347.746 59.9224 361.371C65.0122 365.98 70.3989 370.664 76.063 375.359C102.352 397.133 129.192 414.52 155.836 427.039C189.727 442.965 223.426 451.035 256 451.035C288.575 451.035 322.274 442.965 356.165 427.039C382.813 414.52 409.653 397.133 435.942 375.359C441.18 371.02 446.172 366.688 450.922 362.414C422.79 334.609 399.059 311.34 383.719 296.5V296.5Z" fill="#34558B"/>
<path d="M350.907 267.855C308.129 236.191 276.063 229.113 256 229.113C236.024 229.113 203.961 236.145 161.09 267.859C159.192 275.453 158.176 283.398 158.176 291.574C158.176 345.516 202.059 389.395 256 389.395C309.938 389.395 353.821 345.512 353.821 291.574C353.821 283.398 352.809 275.453 350.907 267.855V267.855ZM270.274 297.574C270.274 305.859 263.555 312.574 255.274 312.574C246.989 312.574 240.274 305.859 240.274 297.574V282.762C240.274 274.477 246.989 267.762 255.274 267.762C263.555 267.762 270.274 274.477 270.274 282.762V297.574Z" fill="#34558B"/>
<path d="M432.891 205.305C407.579 184.695 381.782 168.145 356.165 156.109C322.274 140.188 288.575 132.113 256.001 132.113C223.426 132.113 189.727 140.188 155.836 156.109C130.122 168.191 104.231 184.816 78.8247 205.531C59.8521 221.703 37.1568 244.402 17.4888 264.996C8.56691 275.254 3.51613 281.961 3.03957 282.602C0.680196 285.762 -0.269023 289.621 0.176289 293.355L0.215352 293.668C0.555196 296.105 1.4927 298.477 3.03957 300.551C3.8052 301.578 16.3794 318.285 37.9614 340.277C38.3404 340.059 38.7193 339.859 39.0982 339.625C45.7193 335.535 91.7583 289.695 98.7857 282.191L98.9068 282.059L99.0318 281.934C108.805 272.215 118.895 263.094 129.016 254.82C160.102 229.406 207.368 199.113 255.997 199.113C283.254 199.113 327.743 209.055 384.907 256.402C392.723 262.875 448.532 317.871 472.637 341.699C495.079 319.008 508.176 301.598 508.958 300.551C512.934 295.227 512.934 287.926 508.958 282.602C508.43 281.891 502.258 273.688 491.376 261.434C470.059 239.727 448.602 218.734 432.891 205.305V205.305Z" fill="#34558B"/>
<g clip-path="url(#clip0)">
<rect x="187.001" y="237" width="137" height="138" rx="68.5" fill="#34558B"/>
<path d="M254.672 244.298C223.495 244.298 225.441 257.778 225.441 257.778L225.476 271.744H255.228V275.937H213.659C213.659 275.937 193.709 273.681 193.709 305.045C193.709 336.41 211.122 335.297 211.122 335.297H221.514V320.743C221.514 320.743 220.954 303.381 238.649 303.381H268.157C268.157 303.381 284.736 303.649 284.736 287.406V260.551C284.736 260.551 287.254 244.298 254.672 244.298ZM238.267 253.689C238.97 253.689 239.666 253.826 240.316 254.094C240.965 254.362 241.556 254.755 242.053 255.251C242.55 255.747 242.944 256.335 243.213 256.983C243.482 257.631 243.62 258.325 243.619 259.026C243.62 259.727 243.482 260.421 243.213 261.069C242.944 261.716 242.55 262.305 242.053 262.801C241.556 263.296 240.965 263.689 240.316 263.957C239.666 264.225 238.97 264.363 238.267 264.362C237.564 264.363 236.867 264.225 236.218 263.957C235.568 263.689 234.978 263.296 234.481 262.801C233.983 262.305 233.589 261.716 233.32 261.069C233.052 260.421 232.914 259.727 232.914 259.026C232.914 258.325 233.052 257.631 233.32 256.983C233.589 256.335 233.983 255.747 234.481 255.251C234.978 254.755 235.568 254.362 236.218 254.094C236.867 253.826 237.564 253.689 238.267 253.689V253.689Z" fill="#387EB8"/>
<path d="M255.557 366.107C286.734 366.107 284.787 352.627 284.787 352.627L284.753 338.662H255.001V334.469H296.569C296.569 334.469 316.519 336.725 316.519 305.36C316.519 273.995 299.106 275.108 299.106 275.108H288.714V289.662C288.714 289.662 289.274 307.023 271.579 307.023H242.071C242.071 307.023 225.492 306.756 225.492 322.999V349.855C225.492 349.855 222.975 366.107 255.557 366.107H255.557ZM271.962 356.716C271.259 356.717 270.563 356.58 269.913 356.312C269.263 356.044 268.673 355.651 268.176 355.155C267.679 354.659 267.285 354.071 267.016 353.423C266.747 352.775 266.609 352.081 266.61 351.38C266.609 350.679 266.747 349.985 267.016 349.337C267.284 348.689 267.679 348.101 268.176 347.605C268.673 347.109 269.263 346.716 269.913 346.448C270.563 346.18 271.259 346.043 271.962 346.043C272.665 346.043 273.361 346.18 274.011 346.448C274.661 346.716 275.251 347.109 275.748 347.605C276.245 348.1 276.639 348.689 276.908 349.337C277.177 349.984 277.315 350.679 277.314 351.38C277.315 352.081 277.177 352.775 276.908 353.422C276.639 354.07 276.245 354.659 275.748 355.154C275.251 355.65 274.661 356.043 274.011 356.311C273.361 356.579 272.665 356.717 271.962 356.716V356.716Z" fill="#FFE052"/>
</g>
<defs>
<clipPath id="clip0">
<rect x="187.001" y="237" width="137" height="138" fill="white"/>
</clipPath>
</defs>
</svg>
