<svg width="512" height="471" viewBox="0 0 512 471" fill="none" xmlns="http://www.w3.org/2000/svg">
<path d="M256.149 76.2188C247.864 76.2188 241.149 69.5039 241.149 61.2188V15C241.149 6.71484 247.864 0 256.149 0C264.434 0 271.149 6.71484 271.149 15V61.2188C271.149 69.5039 264.434 76.2188 256.149 76.2188Z" fill="white"/>
<path d="M464.379 154.91C460.547 154.91 456.711 153.449 453.786 150.527C447.922 144.676 447.911 135.18 453.762 129.316L486.383 96.6328C492.235 90.7695 501.735 90.7617 507.598 96.6133C513.461 102.465 513.469 111.961 507.618 117.824L474.997 150.508C472.067 153.441 468.223 154.91 464.379 154.91Z" fill="white"/>
<path d="M47.6216 154.91C43.7778 154.91 39.9341 153.445 37.0044 150.508L4.38331 117.824C-1.46826 111.961 -1.46044 102.465 4.40284 96.6133C10.2661 90.7617 19.7661 90.7695 25.6177 96.6328L58.2388 129.316C64.0903 135.18 64.0786 144.676 58.2153 150.527C55.2896 153.449 51.4536 154.91 47.6216 154.91Z" fill="white"/>
<path d="M383.719 272.5C381.118 340.707 324.829 395.395 256 395.395C186.805 395.395 130.282 340.129 128.243 271.422C125.54 273.965 122.852 276.559 120.188 279.207L120.141 279.254C114.965 284.563 76.5083 323.746 59.9224 337.371C65.0122 341.98 70.3989 346.664 76.063 351.359C102.352 373.133 129.192 390.52 155.836 403.039C189.727 418.965 223.426 427.035 256 427.035C288.575 427.035 322.274 418.965 356.165 403.039C382.813 390.52 409.653 373.133 435.942 351.359C441.18 347.02 446.172 342.688 450.922 338.414C422.79 310.609 399.059 287.34 383.719 272.5V272.5Z" fill="white"/>
<path d="M350.907 243.855C308.129 212.191 276.063 205.113 256 205.113C236.024 205.113 203.961 212.145 161.09 243.859C159.192 251.453 158.176 259.398 158.176 267.574C158.176 321.516 202.059 365.395 256 365.395C309.938 365.395 353.821 321.512 353.821 267.574C353.821 259.398 352.809 251.453 350.907 243.855V243.855ZM270.274 273.574C270.274 281.859 263.555 288.574 255.274 288.574C246.989 288.574 240.274 281.859 240.274 273.574V258.762C240.274 250.477 246.989 243.762 255.274 243.762C263.555 243.762 270.274 250.477 270.274 258.762V273.574Z" fill="white"/>
<path d="M432.891 181.305C407.579 160.695 381.782 144.145 356.165 132.109C322.274 116.188 288.575 108.113 256.001 108.113C223.426 108.113 189.727 116.188 155.836 132.109C130.122 144.191 104.231 160.816 78.8247 181.531C59.8521 197.703 37.1568 220.402 17.4888 240.996C8.56691 251.254 3.51613 257.961 3.03957 258.602C0.680196 261.762 -0.269023 265.621 0.176289 269.355L0.215352 269.668C0.555196 272.105 1.4927 274.477 3.03957 276.551C3.8052 277.578 16.3794 294.285 37.9614 316.277C38.3404 316.059 38.7193 315.859 39.0982 315.625C45.7193 311.535 91.7583 265.695 98.7857 258.191L98.9068 258.059L99.0318 257.934C108.805 248.215 118.895 239.094 129.016 230.82C160.102 205.406 207.368 175.113 255.997 175.113C283.254 175.113 327.743 185.055 384.907 232.402C392.723 238.875 448.532 293.871 472.637 317.699C495.079 295.008 508.176 277.598 508.958 276.551C512.934 271.227 512.934 263.926 508.958 258.602C508.43 257.891 502.258 249.688 491.376 237.434C470.059 215.727 448.602 194.734 432.891 181.305V181.305Z" fill="white"/>
<g clip-path="url(#clip0)">
<rect x="187" y="213" width="137" height="138" rx="68.5" fill="white"/>
<path d="M254.672 220.298C223.495 220.298 225.441 233.778 225.441 233.778L225.476 247.744H255.228V251.937H213.659C213.659 251.937 193.709 249.681 193.709 281.045C193.709 312.41 211.122 311.297 211.122 311.297H221.514V296.743C221.514 296.743 220.954 279.381 238.649 279.381H268.157C268.157 279.381 284.736 279.649 284.736 263.406V236.551C284.736 236.551 287.254 220.298 254.672 220.298ZM238.267 229.689C238.97 229.689 239.666 229.826 240.316 230.094C240.965 230.362 241.556 230.755 242.053 231.251C242.55 231.747 242.944 232.335 243.213 232.983C243.482 233.631 243.62 234.325 243.619 235.026C243.62 235.727 243.482 236.421 243.213 237.069C242.944 237.716 242.55 238.305 242.053 238.801C241.556 239.296 240.965 239.689 240.316 239.957C239.666 240.225 238.97 240.363 238.267 240.362C237.564 240.363 236.867 240.225 236.218 239.957C235.568 239.689 234.978 239.296 234.481 238.801C233.983 238.305 233.589 237.716 233.32 237.069C233.052 236.421 232.914 235.727 232.914 235.026C232.914 234.325 233.052 233.631 233.32 232.983C233.589 232.335 233.983 231.747 234.481 231.251C234.978 230.755 235.568 230.362 236.218 230.094C236.867 229.826 237.564 229.689 238.267 229.689V229.689Z" fill="url(#paint0_linear)"/>
<path d="M255.557 342.107C286.734 342.107 284.787 328.627 284.787 328.627L284.753 314.662H255.001V310.469H296.569C296.569 310.469 316.519 312.725 316.519 281.36C316.519 249.995 299.106 251.108 299.106 251.108H288.714V265.662C288.714 265.662 289.274 283.023 271.579 283.023H242.071C242.071 283.023 225.492 282.756 225.492 298.999V325.855C225.492 325.855 222.975 342.107 255.556 342.107H255.557ZM271.962 332.716C271.259 332.717 270.563 332.58 269.913 332.312C269.263 332.044 268.673 331.651 268.176 331.155C267.679 330.659 267.285 330.071 267.016 329.423C266.747 328.775 266.609 328.081 266.61 327.38C266.609 326.679 266.747 325.985 267.016 325.337C267.284 324.689 267.679 324.101 268.176 323.605C268.673 323.109 269.263 322.716 269.913 322.448C270.563 322.18 271.259 322.043 271.962 322.043C272.665 322.043 273.361 322.18 274.011 322.448C274.661 322.716 275.251 323.109 275.748 323.605C276.245 324.1 276.639 324.689 276.908 325.337C277.177 325.984 277.315 326.679 277.314 327.38C277.315 328.081 277.177 328.775 276.908 329.422C276.639 330.07 276.245 330.659 275.748 331.154C275.251 331.65 274.661 332.043 274.011 332.311C273.361 332.579 272.665 332.717 271.962 332.716V332.716Z" fill="url(#paint1_linear)"/>
</g>
<defs>
<linearGradient id="paint0_linear" x1="205.511" y1="231.254" x2="266.193" y2="291.509" gradientUnits="userSpaceOnUse">
<stop stop-color="#387EB8"/>
<stop offset="1" stop-color="#366994"/>
</linearGradient>
<linearGradient id="paint1_linear" x1="242.867" y1="269.83" x2="308.042" y2="331.625" gradientUnits="userSpaceOnUse">
<stop stop-color="#FFE052"/>
<stop offset="1" stop-color="#FFC331"/>
</linearGradient>
<clipPath id="clip0">
<rect x="187" y="213" width="137" height="138" fill="white"/>
</clipPath>
</defs>
</svg>
