<svg width="512" height="471" viewBox="0 0 512 471" fill="none" xmlns="http://www.w3.org/2000/svg">
<path d="M256.148 76.2188C247.863 76.2188 241.148 69.5039 241.148 61.2188V15C241.148 6.71484 247.863 0 256.148 0C264.434 0 271.148 6.71484 271.148 15V61.2188C271.148 69.5039 264.434 76.2188 256.148 76.2188Z" fill="#34558B"/>
<path d="M464.379 154.91C460.547 154.91 456.711 153.449 453.785 150.527C447.922 144.676 447.91 135.18 453.762 129.316L486.383 96.6328C492.234 90.7695 501.734 90.7617 507.598 96.6133C513.461 102.465 513.469 111.961 507.617 117.824L474.996 150.508C472.066 153.441 468.223 154.91 464.379 154.91Z" fill="#34558B"/>
<path d="M47.6211 154.91C43.7773 154.91 39.9336 153.445 37.0039 150.508L4.3828 117.824C-1.46876 111.961 -1.46095 102.465 4.40234 96.6133C10.2656 90.7617 19.7656 90.7695 25.6172 96.6328L58.2383 129.316C64.0898 135.18 64.0781 144.676 58.2148 150.527C55.2891 153.449 51.4531 154.91 47.6211 154.91Z" fill="#34558B"/>
<path d="M383.719 272.5C381.117 340.707 324.828 395.395 256 395.395C186.805 395.395 130.281 340.129 128.242 271.422C125.539 273.965 122.852 276.559 120.187 279.207L120.141 279.254C114.965 284.563 76.5078 323.746 59.9219 337.371C65.0117 341.98 70.3984 346.664 76.0625 351.359C102.352 373.133 129.191 390.52 155.836 403.039C189.727 418.965 223.426 427.035 256 427.035C288.574 427.035 322.273 418.965 356.164 403.039C382.812 390.52 409.652 373.133 435.941 351.359C441.18 347.02 446.172 342.688 450.922 338.414C422.789 310.609 399.059 287.34 383.719 272.5V272.5Z" fill="#34558B"/>
<path d="M350.906 243.855C308.129 212.191 276.062 205.113 256 205.113C236.023 205.113 203.961 212.145 161.09 243.859C159.191 251.453 158.176 259.398 158.176 267.574C158.176 321.516 202.059 365.395 256 365.395C309.937 365.395 353.82 321.512 353.82 267.574C353.82 259.398 352.809 251.453 350.906 243.855V243.855ZM270.273 273.574C270.273 281.859 263.555 288.574 255.273 288.574C246.988 288.574 240.273 281.859 240.273 273.574V258.762C240.273 250.477 246.988 243.762 255.273 243.762C263.555 243.762 270.273 250.477 270.273 258.762V273.574Z" fill="#34558B"/>
<path d="M432.891 181.305C407.578 160.695 381.781 144.145 356.164 132.109C322.273 116.188 288.574 108.113 256 108.113C223.426 108.113 189.727 116.188 155.836 132.109C130.121 144.191 104.23 160.816 78.8242 181.531C59.8516 197.703 37.1562 220.402 17.4883 240.996C8.56639 251.254 3.51561 257.961 3.03905 258.602C0.679677 261.762 -0.269542 265.621 0.17577 269.355L0.214833 269.668C0.554677 272.105 1.49218 274.477 3.03905 276.551C3.80468 277.578 16.3789 294.285 37.9609 316.277C38.3398 316.059 38.7187 315.859 39.0976 315.625C45.7187 311.535 91.7578 265.695 98.7851 258.191L98.9062 258.059L99.0312 257.934C108.805 248.215 118.895 239.094 129.016 230.82C160.102 205.406 207.367 175.113 255.996 175.113C283.254 175.113 327.742 185.055 384.906 232.402C392.723 238.875 448.531 293.871 472.637 317.699C495.078 295.008 508.176 277.598 508.957 276.551C512.934 271.227 512.934 263.926 508.957 258.602C508.43 257.891 502.258 249.688 491.375 237.434C470.059 215.727 448.602 194.734 432.891 181.305V181.305Z" fill="#34558B"/>
<rect x="313" y="271" width="199" height="200" rx="80" fill="#34558B"/>
<path d="M411.296 281.576C366.01 281.576 368.837 301.113 368.837 301.113L368.888 321.353H412.104V327.43H351.723C351.723 327.43 322.744 324.16 322.744 369.616C322.744 415.072 348.038 413.46 348.038 413.46H363.133V392.366C363.133 392.366 362.319 367.205 388.022 367.205H430.885C430.885 367.205 454.966 367.592 454.966 344.053V305.131C454.966 305.131 458.623 281.576 411.296 281.576ZM387.467 295.188C388.488 295.187 389.499 295.386 390.443 295.774C391.387 296.163 392.244 296.732 392.966 297.451C393.688 298.169 394.261 299.022 394.651 299.961C395.042 300.9 395.242 301.906 395.241 302.921C395.242 303.937 395.042 304.943 394.651 305.882C394.261 306.821 393.688 307.674 392.966 308.392C392.244 309.111 391.387 309.68 390.443 310.069C389.499 310.457 388.488 310.656 387.467 310.655C386.446 310.656 385.434 310.457 384.491 310.069C383.547 309.68 382.69 309.111 381.967 308.392C381.245 307.674 380.673 306.821 380.282 305.882C379.892 304.943 379.691 303.937 379.692 302.921C379.691 301.906 379.892 300.9 380.282 299.961C380.673 299.022 381.245 298.169 381.967 297.451C382.69 296.732 383.547 296.163 384.491 295.774C385.434 295.386 386.446 295.187 387.467 295.188V295.188Z" fill="url(#paint0_linear)"/>
<path d="M412.582 458.112C457.868 458.112 455.041 438.576 455.041 438.576L454.99 418.336H411.774V412.259H472.154C472.154 412.259 501.133 415.529 501.133 370.072C501.133 324.616 475.84 326.228 475.84 326.228H460.745V347.321C460.745 347.321 461.559 372.483 435.855 372.483H392.993C392.993 372.483 368.911 372.096 368.911 395.636V434.558C368.911 434.558 365.255 458.112 412.581 458.112H412.582ZM436.411 444.502C435.39 444.503 434.379 444.304 433.435 443.915C432.491 443.527 431.634 442.957 430.912 442.239C430.19 441.521 429.617 440.668 429.227 439.729C428.836 438.79 428.636 437.784 428.637 436.768C428.636 435.752 428.836 434.746 429.226 433.807C429.617 432.868 430.189 432.015 430.912 431.297C431.634 430.579 432.491 430.009 433.435 429.62C434.379 429.232 435.39 429.033 436.411 429.034C437.432 429.033 438.444 429.232 439.387 429.62C440.331 430.009 441.189 430.578 441.911 431.297C442.633 432.015 443.205 432.868 443.596 433.807C443.986 434.746 444.187 435.752 444.186 436.768C444.187 437.783 443.986 438.79 443.596 439.728C443.205 440.667 442.633 441.52 441.911 442.238C441.189 442.957 440.331 443.526 439.387 443.915C438.444 444.303 437.432 444.502 436.411 444.501V444.502Z" fill="url(#paint1_linear)"/>
<defs>
<linearGradient id="paint0_linear" x1="339.888" y1="297.455" x2="427.834" y2="384.98" gradientUnits="userSpaceOnUse">
<stop stop-color="#387EB8"/>
<stop offset="1" stop-color="#366994"/>
</linearGradient>
<linearGradient id="paint1_linear" x1="394.15" y1="353.363" x2="488.617" y2="443.134" gradientUnits="userSpaceOnUse">
<stop stop-color="#FFE052"/>
<stop offset="1" stop-color="#FFC331"/>
</linearGradient>
</defs>
</svg>
