<svg width="512" height="512" viewBox="0 0 512 512" fill="none" xmlns="http://www.w3.org/2000/svg">
<path d="M256.149 117.219C247.864 117.219 241.149 110.504 241.149 102.219V56C241.149 47.7148 247.864 41 256.149 41C264.434 41 271.149 47.7148 271.149 56V102.219C271.149 110.504 264.434 117.219 256.149 117.219Z" fill="white"/>
<path d="M464.379 195.91C460.547 195.91 456.711 194.449 453.786 191.527C447.922 185.676 447.911 176.18 453.762 170.316L486.383 137.633C492.235 131.77 501.735 131.762 507.598 137.613C513.461 143.465 513.469 152.961 507.618 158.824L474.997 191.508C472.067 194.441 468.223 195.91 464.379 195.91Z" fill="white"/>
<path d="M47.6216 195.91C43.7778 195.91 39.9341 194.445 37.0044 191.508L4.38331 158.824C-1.46826 152.961 -1.46044 143.465 4.40284 137.613C10.2661 131.762 19.7661 131.77 25.6177 137.633L58.2388 170.316C64.0903 176.18 64.0786 185.676 58.2153 191.527C55.2896 194.449 51.4536 195.91 47.6216 195.91Z" fill="white"/>
<path d="M383.719 313.5C381.118 381.707 324.829 436.395 256 436.395C186.805 436.395 130.282 381.129 128.243 312.422C125.54 314.965 122.852 317.559 120.188 320.207L120.141 320.254C114.965 325.562 76.5083 364.746 59.9224 378.371C65.0122 382.98 70.3989 387.664 76.063 392.359C102.352 414.133 129.192 431.52 155.836 444.039C189.727 459.965 223.426 468.035 256 468.035C288.575 468.035 322.274 459.965 356.165 444.039C382.813 431.52 409.653 414.133 435.942 392.359C441.18 388.02 446.172 383.688 450.922 379.414C422.79 351.609 399.059 328.34 383.719 313.5Z" fill="white"/>
<path d="M350.907 284.855C308.129 253.191 276.063 246.113 256 246.113C236.024 246.113 203.961 253.145 161.09 284.859C159.192 292.453 158.176 300.398 158.176 308.574C158.176 362.516 202.059 406.395 256 406.395C309.938 406.395 353.821 362.512 353.821 308.574C353.821 300.398 352.809 292.453 350.907 284.855ZM270.274 314.574C270.274 322.859 263.555 329.574 255.274 329.574C246.989 329.574 240.274 322.859 240.274 314.574V299.762C240.274 291.477 246.989 284.762 255.274 284.762C263.555 284.762 270.274 291.477 270.274 299.762V314.574Z" fill="white"/>
<path d="M432.891 222.305C407.579 201.695 381.782 185.145 356.165 173.109C322.274 157.188 288.575 149.113 256.001 149.113C223.426 149.113 189.727 157.188 155.836 173.109C130.122 185.191 104.231 201.816 78.8247 222.531C59.8521 238.703 37.1568 261.402 17.4888 281.996C8.56691 292.254 3.51613 298.961 3.03957 299.602C0.680196 302.762 -0.269023 306.621 0.176289 310.355L0.215352 310.668C0.555196 313.105 1.4927 315.477 3.03957 317.551C3.8052 318.578 16.3794 335.285 37.9614 357.277C38.3404 357.059 38.7193 356.859 39.0982 356.625C45.7193 352.535 91.7583 306.695 98.7857 299.191L98.9068 299.059L99.0318 298.934C108.805 289.215 118.895 280.094 129.016 271.82C160.102 246.406 207.368 216.113 255.997 216.113C283.254 216.113 327.743 226.055 384.907 273.402C392.723 279.875 448.532 334.871 472.637 358.699C495.079 336.008 508.176 318.598 508.958 317.551C512.934 312.227 512.934 304.926 508.958 299.602C508.43 298.891 502.258 290.688 491.376 278.434C470.059 256.727 448.602 235.734 432.891 222.305Z" fill="white"/>
<rect x="298" y="297" width="207" height="208" rx="85" fill="white" stroke="#34558B" stroke-width="10"/>
<path d="M400.308 312.471C355.477 312.471 358.276 331.812 358.276 331.812L358.326 351.85H401.108V357.865H341.334C341.334 357.865 312.647 354.629 312.647 399.629C312.647 444.631 337.686 443.035 337.686 443.035H352.629V422.153C352.629 422.153 351.823 397.243 377.268 397.243H419.7C419.7 397.243 443.539 397.626 443.539 374.322V335.79C443.539 335.79 447.16 312.471 400.308 312.471ZM376.719 325.946C377.729 325.945 378.731 326.142 379.665 326.527C380.599 326.911 381.448 327.475 382.163 328.186C382.878 328.897 383.444 329.742 383.831 330.671C384.217 331.601 384.416 332.597 384.415 333.602C384.416 334.608 384.217 335.604 383.831 336.533C383.444 337.463 382.878 338.307 382.163 339.018C381.448 339.73 380.599 340.293 379.665 340.678C378.731 341.062 377.729 341.26 376.719 341.259C375.708 341.26 374.706 341.062 373.772 340.678C372.838 340.293 371.989 339.73 371.274 339.018C370.559 338.307 369.993 337.463 369.606 336.533C369.22 335.604 369.021 334.608 369.022 333.602C369.021 332.597 369.22 331.601 369.606 330.671C369.993 329.742 370.559 328.897 371.274 328.186C371.989 327.475 372.838 326.911 373.772 326.527C374.706 326.142 375.708 325.945 376.719 325.946V325.946Z" fill="#387EB8"/>
<path d="M401.581 487.241C446.412 487.241 443.613 467.9 443.613 467.9L443.563 447.863H400.781V441.847H460.555C460.555 441.847 489.242 445.083 489.242 400.081C489.242 355.08 464.203 356.676 464.203 356.676H449.26V377.558C449.26 377.558 450.065 402.468 424.62 402.468H382.189C382.189 402.468 358.35 402.085 358.35 425.389V463.922C358.35 463.922 354.73 487.241 401.581 487.241H401.581ZM425.171 473.767C424.16 473.768 423.159 473.571 422.225 473.186C421.29 472.802 420.442 472.238 419.727 471.527C419.012 470.815 418.445 469.971 418.059 469.042C417.672 468.112 417.474 467.116 417.475 466.111C417.474 465.105 417.672 464.109 418.058 463.179C418.445 462.25 419.012 461.405 419.727 460.694C420.441 459.983 421.29 459.419 422.224 459.034C423.159 458.65 424.16 458.452 425.171 458.453C426.182 458.452 427.183 458.65 428.117 459.034C429.051 459.419 429.9 459.983 430.615 460.694C431.33 461.405 431.897 462.249 432.283 463.179C432.67 464.108 432.868 465.104 432.867 466.11C432.868 467.116 432.67 468.112 432.283 469.041C431.897 469.97 431.33 470.815 430.615 471.526C429.9 472.237 429.051 472.801 428.117 473.185C427.183 473.57 426.182 473.767 425.171 473.766V473.767Z" fill="#FFE052"/>
</svg>
