<svg width="512" height="495" viewBox="0 0 512 495" fill="none" xmlns="http://www.w3.org/2000/svg">
<path d="M256.149 100.219C247.864 100.219 241.149 93.5039 241.149 85.2188V39C241.149 30.7148 247.864 24 256.149 24C264.434 24 271.149 30.7148 271.149 39V85.2188C271.149 93.5039 264.434 100.219 256.149 100.219Z" fill="#34558B"/>
<path d="M464.379 178.91C460.547 178.91 456.711 177.449 453.786 174.527C447.922 168.676 447.911 159.18 453.762 153.316L486.383 120.633C492.235 114.77 501.735 114.762 507.598 120.613C513.461 126.465 513.469 135.961 507.618 141.824L474.997 174.508C472.067 177.441 468.223 178.91 464.379 178.91Z" fill="#34558B"/>
<path d="M47.6216 178.91C43.7778 178.91 39.9341 177.445 37.0044 174.508L4.38331 141.824C-1.46826 135.961 -1.46044 126.465 4.40284 120.613C10.2661 114.762 19.7661 114.77 25.6177 120.633L58.2388 153.316C64.0903 159.18 64.0786 168.676 58.2153 174.527C55.2896 177.449 51.4536 178.91 47.6216 178.91Z" fill="#34558B"/>
<path d="M383.719 296.5C381.118 364.707 324.829 419.395 256 419.395C186.805 419.395 130.282 364.129 128.243 295.422C125.54 297.965 122.852 300.559 120.188 303.207L120.141 303.254C114.965 308.562 76.5083 347.746 59.9224 361.371C65.0122 365.98 70.3989 370.664 76.063 375.359C102.352 397.133 129.192 414.52 155.836 427.039C189.727 442.965 223.426 451.035 256 451.035C288.575 451.035 322.274 442.965 356.165 427.039C382.813 414.52 409.653 397.133 435.942 375.359C441.18 371.02 446.172 366.688 450.922 362.414C422.79 334.609 399.059 311.34 383.719 296.5Z" fill="#34558B"/>
<path d="M350.907 267.855C308.129 236.191 276.063 229.113 256 229.113C236.024 229.113 203.961 236.145 161.09 267.859C159.192 275.453 158.176 283.398 158.176 291.574C158.176 345.516 202.059 389.395 256 389.395C309.938 389.395 353.821 345.512 353.821 291.574C353.821 283.398 352.809 275.453 350.907 267.855ZM270.274 297.574C270.274 305.859 263.555 312.574 255.274 312.574C246.989 312.574 240.274 305.859 240.274 297.574V282.762C240.274 274.477 246.989 267.762 255.274 267.762C263.555 267.762 270.274 274.477 270.274 282.762V297.574Z" fill="#34558B"/>
<path d="M432.891 205.305C407.579 184.695 381.782 168.145 356.165 156.109C322.274 140.188 288.575 132.113 256.001 132.113C223.426 132.113 189.727 140.188 155.836 156.109C130.122 168.191 104.231 184.816 78.8247 205.531C59.8521 221.703 37.1568 244.402 17.4888 264.996C8.56691 275.254 3.51613 281.961 3.03957 282.602C0.680196 285.762 -0.269023 289.621 0.176289 293.355L0.215352 293.668C0.555196 296.105 1.4927 298.477 3.03957 300.551C3.8052 301.578 16.3794 318.285 37.9614 340.277C38.3404 340.059 38.7193 339.859 39.0982 339.625C45.7193 335.535 91.7583 289.695 98.7857 282.191L98.9068 282.059L99.0318 281.934C108.805 272.215 118.895 263.094 129.016 254.82C160.102 229.406 207.368 199.113 255.997 199.113C283.254 199.113 327.743 209.055 384.907 256.402C392.723 262.875 448.532 317.871 472.637 341.699C495.079 319.008 508.176 301.598 508.958 300.551C512.934 295.227 512.934 287.926 508.958 282.602C508.43 281.891 502.258 273.688 491.376 261.434C470.059 239.727 448.602 218.734 432.891 205.305Z" fill="#34558B"/>
<rect x="298" y="280" width="207" height="208" rx="85" fill="#34558B" stroke="white" stroke-width="10"/>
<path d="M400.308 295.471C355.477 295.471 358.276 314.812 358.276 314.812L358.326 334.85H401.108V340.865H341.334C341.334 340.865 312.647 337.629 312.647 382.629C312.647 427.631 337.686 426.035 337.686 426.035H352.629V405.153C352.629 405.153 351.823 380.243 377.268 380.243H419.7C419.7 380.243 443.539 380.626 443.539 357.322V318.79C443.539 318.79 447.16 295.471 400.308 295.471ZM376.718 308.946C377.729 308.945 378.731 309.142 379.665 309.527C380.599 309.911 381.448 310.475 382.163 311.186C382.878 311.897 383.444 312.742 383.831 313.671C384.217 314.601 384.416 315.597 384.415 316.602C384.416 317.608 384.217 318.604 383.831 319.533C383.444 320.463 382.878 321.307 382.163 322.018C381.448 322.73 380.599 323.293 379.665 323.678C378.731 324.062 377.729 324.26 376.718 324.259C375.708 324.26 374.706 324.062 373.772 323.678C372.838 323.293 371.989 322.73 371.274 322.018C370.559 321.307 369.993 320.463 369.606 319.533C369.22 318.604 369.021 317.608 369.022 316.602C369.021 315.597 369.22 314.601 369.606 313.671C369.993 312.742 370.559 311.897 371.274 311.186C371.989 310.475 372.838 309.911 373.772 309.527C374.706 309.142 375.708 308.945 376.718 308.946V308.946Z" fill="#387EB8"/>
<path d="M401.581 470.241C446.412 470.241 443.613 450.9 443.613 450.9L443.563 430.863H400.781V424.847H460.555C460.555 424.847 489.242 428.083 489.242 383.081C489.242 338.08 464.203 339.676 464.203 339.676H449.26V360.558C449.26 360.558 450.065 385.468 424.62 385.468H382.189C382.189 385.468 358.35 385.085 358.35 408.389V446.922C358.35 446.922 354.73 470.241 401.581 470.241H401.581ZM425.171 456.767C424.16 456.768 423.159 456.571 422.225 456.186C421.29 455.802 420.442 455.238 419.727 454.527C419.012 453.815 418.445 452.971 418.059 452.042C417.672 451.112 417.474 450.116 417.475 449.111C417.474 448.105 417.672 447.109 418.058 446.179C418.445 445.25 419.012 444.405 419.727 443.694C420.441 442.983 421.29 442.419 422.224 442.034C423.159 441.65 424.16 441.452 425.171 441.453C426.182 441.452 427.183 441.65 428.117 442.034C429.051 442.419 429.9 442.983 430.615 443.694C431.33 444.405 431.897 445.249 432.283 446.179C432.67 447.108 432.868 448.104 432.867 449.11C432.868 450.116 432.67 451.112 432.283 452.041C431.897 452.97 431.33 453.815 430.615 454.526C429.9 455.237 429.051 455.801 428.117 456.185C427.183 456.57 426.182 456.767 425.171 456.766V456.767Z" fill="#FFE052"/>
</svg>
